<svg width="52" height="52" viewBox="0 0 52 52" fill="none" xmlns="http://www.w3.org/2000/svg">
<circle cx="26" cy="26" r="26" fill="#3485FF"/>
<path d="M34.5634 34.4656L34.4345 32.4698C34.3661 31.4111 33.88 30.423 33.0831 29.7228C32.2861 29.0225 31.2437 28.6676 30.185 28.7359L22.2016 29.2516C21.143 29.32 20.1548 29.8061 19.4546 30.603C18.7544 31.4 18.3994 32.4424 18.4678 33.5011L18.5967 35.4969" stroke="#FAFAFA" stroke-width="2" stroke-linecap="round" stroke-linejoin="round"/>
<path d="M25.9355 25.0022C28.1401 24.8598 29.8118 22.9572 29.6694 20.7527C29.527 18.5481 27.6245 16.8764 25.4199 17.0188C23.2154 17.1612 21.5437 19.0637 21.686 21.2683C21.8284 23.4728 23.731 25.1445 25.9355 25.0022Z" stroke="#FAFAFA" stroke-width="2" stroke-linecap="round" stroke-linejoin="round"/>
</svg>
